<svg width="16" height="17" viewBox="0 0 16 17" fill="none" xmlns="http://www.w3.org/2000/svg">
<path d="M5.99996 2.91663C3.05329 2.91663 0.666626 5.30329 0.666626 8.24996C0.666626 11.1966 3.05329 13.5833 5.99996 13.5833C8.94663 13.5833 11.3333 11.1966 11.3333 8.24996C11.3333 5.30329 8.94663 2.91663 5.99996 2.91663ZM5.99996 12.25C3.79329 12.25 1.99996 10.4566 1.99996 8.24996C1.99996 6.04329 3.79329 4.24996 5.99996 4.24996C8.20663 4.24996 9.99996 6.04329 9.99996 8.24996C9.99996 10.4566 8.20663 12.25 5.99996 12.25ZM7.99996 7.24996H6.66663V10.5833H5.33329V7.24996H3.99996V6.24996H7.99996V7.24996ZM13.5 2.74996L15.3333 3.58329L13.5 4.41663L12.6666 6.24996L11.8333 4.41663L9.99996 3.58329L11.8333 2.74996L12.6666 0.916626L13.5 2.74996ZM13.5 12.0833L15.3333 12.9166L13.5 13.75L12.6666 15.5833L11.8333 13.75L9.99996 12.9166L11.8333 12.0833L12.6666 10.25L13.5 12.0833Z" fill="#4A5568"/>
</svg>
